<svg xmlns="http://www.w3.org/2000/svg" width="20" height="20" viewBox="0 0 20 20" fill="none">
<path d="M8.75033 14.1662H3.33366V12.4995H8.75033C9.28262 12.4997 9.8047 12.6455 10.26 12.9212C10.7153 13.197 11.0865 13.592 11.3334 14.0636C11.5802 14.5352 11.6933 15.0653 11.6604 15.5966C11.6274 16.1279 11.4497 16.64 11.1465 17.0775C10.8433 17.515 10.4262 17.8612 9.94032 18.0786C9.45443 18.2959 8.91833 18.3762 8.39009 18.3106C7.86185 18.2451 7.36162 18.0362 6.94361 17.7067C6.52559 17.3771 6.20572 16.9395 6.01866 16.4412L7.57949 15.8553C7.65964 16.0689 7.79671 16.2565 7.97585 16.3977C8.15499 16.539 8.36936 16.6285 8.59575 16.6566C8.82214 16.6847 9.0519 16.6504 9.26015 16.5572C9.4684 16.4641 9.64719 16.3157 9.77714 16.1283C9.9071 15.9408 9.98327 15.7213 9.99741 15.4936C10.0115 15.2659 9.96309 15.0387 9.85731 14.8366C9.75154 14.6344 9.59247 14.4651 9.39733 14.347C9.2022 14.2288 8.97845 14.1663 8.75033 14.1662ZM4.16699 9.16616H15.417C15.9493 9.16635 16.4714 9.3122 16.9267 9.58791C17.382 9.86362 17.7532 10.2587 18 10.7303C18.2469 11.2019 18.36 11.732 18.327 12.2633C18.2941 12.7946 18.1164 13.3067 17.8132 13.7442C17.51 14.1817 17.0929 14.5279 16.607 14.7452C16.1211 14.9626 15.585 15.0428 15.0568 14.9773C14.5285 14.9117 14.0283 14.7029 13.6103 14.3733C13.1923 14.0438 12.8724 13.6062 12.6853 13.1078L14.2462 12.522C14.3263 12.7356 14.4634 12.9232 14.6425 13.0644C14.8217 13.2056 15.036 13.2952 15.2624 13.3233C15.4888 13.3514 15.7186 13.317 15.9268 13.2239C16.1351 13.1308 16.3139 12.9824 16.4438 12.7949C16.5738 12.6074 16.6499 12.3879 16.6641 12.1603C16.6782 11.9326 16.6298 11.7054 16.524 11.5032C16.4182 11.3011 16.2591 11.1318 16.064 11.0136C15.8689 10.8954 15.6451 10.8329 15.417 10.8328H4.16699C3.50395 10.8328 2.86807 10.5694 2.39923 10.1006C1.93038 9.63175 1.66699 8.99587 1.66699 8.33283C1.66699 7.66978 1.93038 7.0339 2.39923 6.56506C2.86807 6.09622 3.50395 5.83283 4.16699 5.83283H11.2503C11.4785 5.83273 11.7022 5.77021 11.8973 5.65203C12.0925 5.53386 12.2515 5.36454 12.3573 5.16242C12.4631 4.96029 12.5115 4.73308 12.4974 4.50539C12.4833 4.2777 12.4071 4.05822 12.2771 3.87073C12.1472 3.68324 11.9684 3.53489 11.7602 3.44175C11.5519 3.34861 11.3221 3.31424 11.0958 3.34236C10.8694 3.37047 10.655 3.46 10.4758 3.60125C10.2967 3.7425 10.1596 3.93008 10.0795 4.14366L8.51866 3.55866C8.75905 2.91933 9.21614 2.38461 9.81028 2.04767C10.4044 1.71073 11.0979 1.59292 11.77 1.71478C12.4421 1.83664 13.0501 2.19045 13.4881 2.71454C13.9261 3.23863 14.1664 3.8998 14.167 4.58283C14.167 5.35637 13.8597 6.09824 13.3127 6.64522C12.7657 7.1922 12.0239 7.49949 11.2503 7.49949H4.16699C3.94598 7.49949 3.73402 7.58729 3.57774 7.74357C3.42146 7.89985 3.33366 8.11181 3.33366 8.33283C3.33366 8.55384 3.42146 8.7658 3.57774 8.92208C3.73402 9.07836 3.94598 9.16616 4.16699 9.16616Z" fill="#596981"/>
</svg>